<svg xmlns="http://www.w3.org/2000/svg" viewBox="0 0 32 32"><g fill="none" fill-rule="evenodd"><path fill="#054752" d="M31.82 18.6a9 9 0 00-10.4-7.4l1.47-8.27L17.62 2c-.47 1-2.4 5.53-3.4 10.6a8.9 8.9 0 013.8 5.93 9.1 9.1 0 01-1.93 7.27 8.6 8.6 0 008.27 3.13c5-.73 8.33-5.4 7.46-10.33"/><path fill="#2DBEFF" d="M14.15 13.2l.14-.53a9.07 9.07 0 00-6.6-1.47L9.15 3 3.9 2.07c-.47 1-2.6 5.86-3.47 11.13-.73 4.27-.67 8.87 1.53 12.07a7.93 7.93 0 001.8 1.86 8.68 8.68 0 007 1.8 8.94 8.94 0 005.47-3.13l-.4-.53c-2.33-3.2-2.4-7.74-1.67-12.07"/><path fill="#9EF769" d="M18.09 18.6a9.14 9.14 0 00-3.8-5.93l-.14.53c-.73 4.27-.66 8.87 1.54 12.07l.4.53a8.69 8.69 0 002-7.2"/></g></svg>