<svg width="32" height="32" fill="none" xmlns="http://www.w3.org/2000/svg"><g fill-rule="evenodd" clip-rule="evenodd"><path d="M16.5 22.629c3.766 0 7.08 1.232 9 3.099a12.673 12.673 0 01-9 3.745 12.673 12.673 0 01-9-3.745c1.92-1.867 5.234-3.1 9-3.1zm0-13.939c3.239 0 5.866 2.68 5.866 5.983 0 3.303-2.627 5.981-5.866 5.981s-5.865-2.678-5.865-5.98c0-3.305 2.626-5.984 5.865-5.984z" fill="#855CEA"/><path d="M28 20.5a3 3 0 00-3 3c0 .484.125.935.329 1.34a12.497 12.497 0 01-5.964 3.316A2.991 2.991 0 0016.5 26a2.992 2.992 0 00-2.865 2.156 12.497 12.497 0 01-5.964-3.316c.204-.405.329-.856.329-1.34a3 3 0 00-3-3c-.049 0-.095.012-.143.015A12.416 12.416 0 014 16c0-1.412.247-2.766.68-4.032.107.011.211.032.32.032a3 3 0 003-3c0-.611-.185-1.18-.5-1.653a12.497 12.497 0 016.135-3.503A2.992 2.992 0 0016.5 6a2.991 2.991 0 002.865-2.156A12.497 12.497 0 0125.5 7.347 2.975 2.975 0 0025 9a3 3 0 003 3c.109 0 .213-.021.32-.032.433 1.266.68 2.62.68 4.032 0 1.593-.311 3.112-.857 4.515-.048-.003-.094-.015-.143-.015zm2.135-9.395A3 3 0 0028 6c-.31 0-.602.061-.883.147a14.46 14.46 0 00-7.889-4.382A2.997 2.997 0 0016.5 0a2.997 2.997 0 00-2.728 1.765 14.46 14.46 0 00-7.889 4.382A2.998 2.998 0 005 6a3 3 0 00-2.135 5.105A14.442 14.442 0 002 16c0 1.863.364 3.639 1.004 5.275A2.984 2.984 0 002 23.5a3 3 0 003 3c.438 0 .852-.1 1.228-.269a14.458 14.458 0 007.544 4.004A2.997 2.997 0 0016.5 32a2.997 2.997 0 002.728-1.765 14.458 14.458 0 007.544-4.004c.376.169.79.269 1.228.269a3 3 0 003-3c0-.887-.393-1.676-1.004-2.225A14.443 14.443 0 0031 16c0-1.721-.315-3.363-.865-4.895z" fill="#C2ADF4"/></g></svg>