<svg xmlns="http://www.w3.org/2000/svg" xmlns:xlink="http://www.w3.org/1999/xlink" viewBox="0 0 32 32"><defs><path id="a" d="M.011.022h8.631v14.487H.011z"/></defs><g fill="none" fill-rule="evenodd"><path fill="#FCCD25" d="M22.63 6.94c1.45 0 2.86.1 4.25.33A15.98 15.98 0 000 18.62 27.7 27.7 0 0122.63 6.94"/><path fill="#F28A2C" d="M10.02 27.77a10.69 10.69 0 01-4.1-5.25 16.7 16.7 0 00-1.77 2.43c-.56.9-1.1 1.81-1.47 2.81.26.4.54.77.82 1.13h8.72c-.77-.28-1.51-.66-2.2-1.12m15.8-4.79c-.36.86-1.37 2.39-1.37 2.39a10.64 10.64 0 01-4.76 3.53h8.72a15.6 15.6 0 002.01-3.23 17.09 17.09 0 01-4.6-2.69"/><g transform="translate(23.293 11.163)"><mask id="b" fill="#fff"><use xlink:href="#a"/></mask><path fill="#EA5330" d="M7.13.98L7.02.75 6.94.6C5.84.44 4.74.3 3.64.2A62.2 62.2 0 00.02.02a10.9 10.9 0 011.97 2.54 10.6 10.6 0 01.55 9.26 16.8 16.8 0 004.61 2.69 15.8 15.8 0 001.5-6.76A15.98 15.98 0 007.13.98" mask="url(#b)"/></g><path fill="#F7A62B" d="M0 18.62v.3c0 3.27.99 6.32 2.68 8.85a27.28 27.28 0 013.24-5.24 10.68 10.68 0 014.95-12.99A27.88 27.88 0 000 18.62M26.85 7.23a29.3 29.3 0 00-4.05-.31h-.13a27.94 27.94 0 00-9.9 1.8 10.62 10.62 0 0110.54 2.45c2.3.07 4.62.25 6.94.57a16.64 16.64 0 00-3.4-4.5"/></g></svg>