<svg xmlns="http://www.w3.org/2000/svg" xmlns:xlink="http://www.w3.org/1999/xlink" viewBox="0 0 32 32"><defs><polygon id="a" points=".011 .022 8.642 .022 8.642 14.509 .011 14.509"/></defs><g fill="none" fill-rule="evenodd" transform="translate(0 3)"><path fill="#FCCD25" d="M22.63 3.94c1.45 0 2.86.1 4.25.33A15.98 15.98 0 0 0 0 15.62 27.7 27.7 0 0 1 22.63 3.94"/><path fill="#F28A2C" d="M10.02 24.77a10.69 10.69 0 0 1-4.1-5.25 16.7 16.7 0 0 0-1.77 2.43c-.56.9-1.1 1.81-1.47 2.81.26.4.54.77.82 1.13h8.72c-.77-.28-1.51-.66-2.2-1.12m15.8-4.79c-.36.86-1.37 2.39-1.37 2.39a10.64 10.64 0 0 1-4.76 3.53h8.72a15.6 15.6 0 0 0 2.01-3.23 17.09 17.09 0 0 1-4.6-2.69"/><g transform="translate(23.293 8.163)"><mask id="b" fill="white"><use xlink:href="#a"/></mask><path fill="#EA5330" d="M7.13.98L7.02.75 6.94.6C5.84.44 4.74.3 3.64.2A62.2 62.2 0 0 0 .02.02a10.9 10.9 0 0 1 1.97 2.54 10.6 10.6 0 0 1 .55 9.26 16.8 16.8 0 0 0 4.61 2.69 15.8 15.8 0 0 0 1.5-6.76A15.98 15.98 0 0 0 7.13.98" mask="url(#b)"/></g><path fill="#F7A62B" d="M0 15.62v.3c0 3.27.99 6.32 2.68 8.85a27.28 27.28 0 0 1 3.24-5.24 10.68 10.68 0 0 1 4.95-12.99A27.88 27.88 0 0 0 0 15.62M26.85 4.23a29.3 29.3 0 0 0-4.05-.31h-.13a27.94 27.94 0 0 0-9.9 1.8 10.62 10.62 0 0 1 10.54 2.45c2.3.07 4.62.25 6.94.57a16.64 16.64 0 0 0-3.4-4.5"/></g></svg>