<svg width="32" height="32" viewBox="0 0 32 32" fill="none" xmlns="http://www.w3.org/2000/svg">
<g id="icons/app/collect">
<path id="Shape" fill-rule="evenodd" clip-rule="evenodd" d="M16.5 22.6289C20.266 22.6289 23.58 23.8609 25.5 25.7279C23.197 28.0389 20.013 29.4729 16.5 29.4729C12.987 29.4729 9.803 28.0389 7.5 25.7279C9.42 23.8609 12.734 22.6289 16.5 22.6289ZM16.5 8.69031C19.739 8.69031 22.366 11.3693 22.366 14.6733C22.366 17.9763 19.739 20.6543 16.5 20.6543C13.261 20.6543 10.635 17.9763 10.635 14.6733C10.635 11.3693 13.261 8.69031 16.5 8.69031Z" fill="#855CEA"/>
<path id="Fill 5" fill-rule="evenodd" clip-rule="evenodd" d="M28 20.5C26.343 20.5 25 21.843 25 23.5C25 23.984 25.125 24.435 25.329 24.84C23.715 26.452 21.658 27.615 19.365 28.156C18.998 26.913 17.862 26 16.5 26C15.139 26 14.002 26.913 13.635 28.156C11.342 27.615 9.285 26.452 7.671 24.84C7.875 24.435 8 23.984 8 23.5C8 21.843 6.657 20.5 5 20.5C4.951 20.5 4.905 20.512 4.857 20.515C4.311 19.112 4 17.593 4 16C4 14.588 4.247 13.234 4.68 11.968C4.787 11.979 4.891 12 5 12C6.657 12 8 10.657 8 9C8 8.389 7.815 7.82 7.5 7.347C9.141 5.642 11.257 4.405 13.635 3.844C14.002 5.087 15.139 6 16.5 6C17.862 6 18.998 5.087 19.365 3.844C21.743 4.405 23.859 5.642 25.5 7.347C25.185 7.82 25 8.389 25 9C25 10.657 26.343 12 28 12C28.109 12 28.213 11.979 28.32 11.968C28.753 13.234 29 14.588 29 16C29 17.593 28.689 19.112 28.143 20.515C28.095 20.512 28.049 20.5 28 20.5ZM30.135 11.105C30.669 10.563 31 9.821 31 9C31 7.343 29.657 6 28 6C27.69 6 27.398 6.061 27.117 6.147C25.058 3.93 22.321 2.354 19.228 1.765C18.756 0.726 17.715 0 16.5 0C15.285 0 14.244 0.726 13.772 1.765C10.679 2.354 7.942 3.93 5.883 6.147C5.602 6.061 5.31 6 5 6C3.343 6 2 7.343 2 9C2 9.821 2.331 10.563 2.865 11.105C2.315 12.637 2 14.279 2 16C2 17.863 2.364 19.639 3.004 21.275C2.393 21.824 2 22.613 2 23.5C2 25.157 3.343 26.5 5 26.5C5.438 26.5 5.852 26.4 6.228 26.231C8.243 28.255 10.854 29.679 13.772 30.235C14.244 31.274 15.285 32 16.5 32C17.715 32 18.756 31.274 19.228 30.235C22.146 29.679 24.757 28.255 26.772 26.231C27.148 26.4 27.562 26.5 28 26.5C29.657 26.5 31 25.157 31 23.5C31 22.613 30.607 21.824 29.996 21.275C30.636 19.639 31 17.863 31 16C31 14.279 30.685 12.637 30.135 11.105Z" fill="#C2ADF4"/>
</g>
</svg>
